<svg xmlns="http://www.w3.org/2000/svg" xmlns:xlink="http://www.w3.org/1999/xlink" width="279.999" height="462.198" viewBox="0 0 74.083 122.29" xmlns:v="https://vecta.io/nano"><style><![CDATA[.B{stroke-linejoin:round}]]></style><g transform="translate(-72.767 -15.324)"><path d="M75.788 15.957h68.04c1.323 0 2.388 1.024 2.388 2.297v98.93c-.23 18.339-15.651 19.826-19.964 19.724l-50.464-.047c-1.323-.001-2.388-1.024-2.388-2.297V18.254c0-1.273 1.065-2.297 2.388-2.297z" fill="#e6e6e6" stroke="#000" stroke-width="1.266" class="B"/><rect x="78.564" y="25.966" width="62.489" height="47.08" ry="2.953" fill="#999"/><g stroke="#000" class="B"><path fill="#fff" fill-rule="evenodd" stroke-width="1.588" d="M87.848 29.741h43.921V69.27H87.848z"/><g stroke-width="1.252"><path d="M84.687 90.082v4.981h-4.981v5.977h4.981v4.981h5.977v-4.981h4.981v-5.977h-4.981v-4.981z" fill="#4d4d4d"/><g transform="matrix(.7661 -.64277 .6428 .766 0 0)" fill="#d60e8b"><circle cx="43.586" cy="159.51" r="4.361"/><circle cx="30.474" cy="155.93" r="4.361"/></g></g></g><g fill="#00f"><g transform="matrix(.2494 -.10337 .10337 .2494 -67.747 110.77)"><use xlink:href="#B"/><use xlink:href="#C"/><path d="M562.21 277.36c0-.256-.239-.47-.521-.47H558.5v-3.719c0-.256-.239-.47-.521-.47s-.521.214-.521.47v4.189c0 .205.205.47.521.47h3.71c.282 0 .521-.214.521-.47z"/><use xlink:href="#C" x="11.7"/><path d="M574.23 273.17c0-.256-.239-.47-.521-.47h-2.018c-.71 0-1.607.034-2.265.598-.684.59-.701 1.453-.701 2.112v.111c0 .573.051 1.376.752 1.847.641.427 1.462.462 2.146.462h2.086c.282 0 .521-.214.521-.47s-.239-.47-.521-.47h-1.744c-.778 0-1.522-.043-1.864-.274-.214-.145-.333-.539-.333-1.094 0-.71.077-1.265.385-1.539.342-.299 1.009-.342 1.812-.342h1.744c.282 0 .521-.214.521-.47z"/><use xlink:href="#D"/></g><g transform="matrix(.2494 -.10337 .10337 .2494 -54.319 110.35)"><use xlink:href="#B"/><use xlink:href="#D" x="-24.51"/><path d="M557.09 277.93c.282 0 .521-.214.521-.47v-1.462h3.326v1.462c0 .256.239.47.521.47s.521-.214.521-.47v-2.223c0-.624-.034-1.376-.556-1.958-.581-.65-1.453-.667-2.06-.667h-.18c-.607 0-1.487.017-2.069.667-.521.581-.547 1.334-.547 1.958v2.223c0 .256.239.47.521.47zm.53-2.873c.026-.521.094-.949.308-1.188.239-.265.675-.316 1.342-.316s1.103.051 1.342.316c.214.239.291.667.316 1.188zm6.72-.007v-1.411h1.906c.521 0 1 .043 1.163.145.051.034.145.214.145.556s-.094.53-.145.564c-.162.103-.641.145-1.163.145zm4.257 2.402c0-.111-.034-.214-.12-.299l-1.154-1.223c.239-.043.479-.128.692-.265.547-.351.581-.949.581-1.325s-.034-.966-.581-1.317c-.462-.299-1.017-.325-1.47-.325h-2.727c-.222 0-.521.188-.521.47v4.283c0 .256.239.47.521.47s.521-.214.521-.47v-1.462h1.667l1.676 1.77a.53.53 0 0 0 .393.162c.282 0 .521-.214.521-.47z"/><use xlink:href="#D" x="-5.86"/></g><path d="M127.49 108.779a.17.17 0 0 1 .162.101c.034.082.005.152-.023.178-.132.122-.497.288-.814.419l-.621.257-.179-.432.444-.184c.349-.145.805-.324 1.03-.34zm-1.702 1.39c.051.123.209.178.344.122l1.04-.431c.284-.118.605-.26.823-.466a.64.64 0 0 0 .159-.721c-.106-.255-.37-.405-.653-.389.031-.181-.018-.358-.075-.494-.085-.206-.254-.473-.596-.509-.303-.033-.606.083-.861.188l-.859.356c-.107.044-.213.194-.157.33zm.485-1.502l-.444.184-.281-.678.444-.184c.292-.121.6-.225.741-.211.04.003.127.063.192.219s.047.265.021.295c-.09.109-.381.254-.673.375zm12.786-3.971c.136-.056.208-.207.157-.33l-.291-.703 1.599-.663.291.703c.051.123.209.178.344.122s.208-.207.157-.33l-.443-1.069c-.124-.3-.291-.655-.657-.831-.409-.197-.832-.031-1.124.09l-.086.036c-.292.121-.712.305-.862.733-.135.383.003.75.127 1.05l.443 1.069c.051.123.209.178.344.122zm-.318-1.487c-.092-.256-.144-.475-.089-.633.062-.175.262-.287.582-.42s.54-.195.708-.115c.15.073.273.263.389.508z"/></g><g stroke="#000" class="B"><g fill="#fff" stroke-width="1.506"><use xlink:href="#E"/><use xlink:href="#E" x="12.62" y="-0.07"/></g><g transform="matrix(2.3907 -1.0568 .53858 1.1937 19.434 30.179)" fill="#e6e6e6" stroke-width=".285"><rect x="19.377" y="95.893" width=".601" height="9.225" ry=".301"/><rect x="21.003" y="95.893" width=".601" height="9.225" ry=".301"/><rect x="22.607" y="95.893" width=".601" height="9.225" ry=".301"/><rect x="24.232" y="95.893" width=".601" height="9.225" ry=".301"/><rect x="25.829" y="95.893" width=".601" height="9.225" ry=".301"/><rect x="27.454" y="95.893" width=".601" height="9.225" ry=".301"/></g></g><g fill="none" stroke="#b4b3b3"><path d="m74.033 21.309h71.543" stroke-width=".522"/><path d="M78.553 21.088V16.59" stroke-width=".503"/><path d="M141 21.088V16.59" stroke-width=".485"/></g></g><defs ><path id="B" d="M549.62 273.17c0-.256-.239-.47-.521-.47h-2.625c-.402 0-.957.026-1.385.427-.419.393-.445.889-.445 1.265v.188c0 .316.034.829.53 1.137.393.248.855.274 1.222.274h2.308a3.12 3.12 0 0 1 .462.026v.051c0 .376-.043.692-.103.769 0 .009-.06.051-.359.051h-3.539c-.282 0-.521.214-.521.47s.239.47.521.47h3.539c.291 0 .863-.009 1.214-.462.265-.342.291-.735.291-1.051v-.248c0-.214-.034-.607-.445-.838-.291-.162-.59-.18-.829-.18h-2.265c-.436 0-.804-.043-.906-.103 0 0-.077-.094-.077-.368 0-.436.051-.701.154-.804.103-.094.368-.137.829-.137h2.428c.282 0 .521-.214.521-.47z"/><path id="C" d="M556.23 277.36c0-.256-.239-.47-.521-.47h-3.505v-.898h2.915c.282 0 .521-.214.521-.47s-.239-.47-.521-.47h-2.915v-1.411h3.505c.282 0 .521-.214.521-.47s-.239-.47-.521-.47h-4.027c-.222 0-.521.188-.521.47v4.189c0 .205.205.47.521.47h4.027c.282 0 .521-.214.521-.47z"/><path id="D" d="M574.79 273.17c0 .256.239.47.521.47h1.881v3.813c0 .256.239.47.521.47s.521-.214.521-.47v-3.813h1.881c.282 0 .521-.214.521-.47s-.239-.47-.521-.47h-4.805c-.282 0-.521.214-.521.47z"/><path id="E" d="M103.27 114.09c.709 1.586-.713 1.988-3.713 3.328s-4.145 2.008-4.827.483c-.774-1.733.583-1.926 3.584-3.266s4.162-2.323 4.957-.545z"/></defs></svg>