<svg xmlns="http://www.w3.org/2000/svg" viewBox="0 0 74.083 122.29"><g transform="translate(-72.767 -15.324)"><path fill="#e6e6e6" stroke="#000" stroke-linejoin="round" stroke-width="1.266" d="M75.788 15.957h68.04c1.323 0 2.389 1.024 2.389 2.297v98.93c-.23 18.339-15.652 19.826-19.965 19.724l-50.463-.047c-1.324-.001-2.389-1.024-2.389-2.297V18.254c0-1.272 1.065-2.297 2.389-2.297z"/><rect width="62.489" height="47.08" x="78.564" y="25.966" fill="#999" ry="2.953"/><g stroke="#000" stroke-linejoin="round"><path fill="#fff" fill-rule="evenodd" stroke-width="1.587" d="M87.848 29.741h43.921V69.27H87.848z"/><g stroke-width="1.252"><path fill="#4d4d4d" d="M84.687 90.082v4.981h-4.981v5.977h4.981v4.981h5.977v-4.98h4.981v-5.978h-4.98v-4.981z"/><circle cx="43.586" cy="159.51" r="4.361" fill="#d60e8b" transform="rotate(-39.999) skewX(.002)"/><circle cx="30.474" cy="155.93" r="4.361" fill="#d60e8b" transform="rotate(-39.999) skewX(.002)"/></g></g><path fill="#fff" stroke="#000" stroke-linejoin="round" stroke-width="1.506" d="M103.27 114.09c.709 1.586-.713 1.988-3.713 3.328-3 1.34-4.146 2.008-4.827.483-.774-1.734.584-1.926 3.584-3.266s4.162-2.323 4.956-.545zm12.62-.07c.709 1.586-.713 1.988-3.713 3.328-3 1.34-4.146 2.008-4.827.483-.774-1.734.584-1.926 3.584-3.266s4.162-2.323 4.956-.545z"/><g fill="#e6e6e6" stroke="#000" stroke-linejoin="round" stroke-width=".285" transform="matrix(2.3907 -1.0568 .53858 1.1937 19.434 30.179)"><rect width=".601" height="9.225" x="19.377" y="95.893" ry=".301"/><rect width=".601" height="9.225" x="21.003" y="95.893" ry=".301"/><rect width=".601" height="9.225" x="22.607" y="95.893" ry=".301"/><rect width=".601" height="9.225" x="24.232" y="95.893" ry=".301"/><rect width=".601" height="9.225" x="25.829" y="95.893" ry=".301"/><rect width=".601" height="9.225" x="27.454" y="95.893" ry=".301"/></g><g fill="none" stroke="#b4b3b3"><path stroke-width=".522" d="M74.033 21.309h71.543"/><path stroke-width=".503" d="M78.553 21.088V16.59"/><path stroke-width=".485" d="M141 21.088V16.59"/></g></g></svg>