<?xml version="1.0" encoding="UTF-8"?>
<svg width="77.648mm" height="26.458mm" version="1.1" viewBox="0 0 77.648 26.458" xmlns="http://www.w3.org/2000/svg">
 <g transform="translate(1.242e-6 -270.54)">
  <circle cx="10.583" cy="281.12" r="8.4427" fill="none" stroke="#000" stroke-linejoin="round" stroke-width="4.2813"/>
  <rect x="3.5713e-5" y="281.12" width="4.2333" height="15.875" stroke-width="0"/>
  <g transform="matrix(.26458 0 0 .26458 -50.604 215.71)" style="shape-inside:url(#rect61733);white-space:pre" aria-label="adme">
   <path d="m312.89 306.57v-24.096c-0.96-12.576-11.328-21.984-23.712-21.984-11.616 0-23.04 11.424-23.04 23.52 0 12.192 9.984 23.232 21.792 23.232 3.648 0 8.16-1.152 11.904-3.936v3.264zm-12.864-21.888c0.096 5.76-4.704 10.56-10.464 10.656s-10.56-4.704-10.656-10.464c-0.096-5.76 4.704-10.56 10.464-10.656s10.56 4.704 10.656 10.464z"/>
   <path d="m365.21 285.45v-48.864h-13.632v27.072c-3.456-1.92-7.488-2.976-10.944-2.976-9.888 0-20.064 7.008-22.272 17.664 0 1.44-0.288 3.456-0.288 4.704 0 7.68 2.784 14.304 9.216 19.488 4.224 3.264 9.408 4.512 14.304 4.512h2.016c11.136-0.96001 20.544-10.368 21.6-21.6zm-12.768-1.728c-0.096 5.76-4.896 10.56-10.656 10.464s-10.56-4.896-10.464-10.656 4.896-10.56 10.656-10.464 10.56 4.896 10.464 10.656z"/>
   <path d="m434.33 306.57v-27.744c-0.48-10.944-9.984-17.856-19.392-17.856-4.512 0-9.216 1.44-12.672 4.992-3.744-2.976-8.16-5.28-12.864-5.28h-1.728c-8.448 0.76799-15.648 7.2-17.088 15.648v30.24h12.864v-27.552c0-0.95999 0.48-2.208 1.248-3.456 0.96-1.92 2.688-2.976 4.704-2.976 3.264 0 6.72 3.456 6.72 7.488v26.496h12.384v-26.496c0.192-1.056 0.672-2.016 0.96-3.264 0.96-2.496 3.264-3.744 5.184-3.744 2.976 0 6.432 2.784 6.72 6.432v27.072z"/>
   <path d="m484.73 280.07c0-10.176-11.616-19.296-22.848-19.296-14.208 0-22.56 11.712-22.56 23.328 0 11.616 8.256 22.944 22.464 22.944 8.928 0 18.048-5.472 21.696-14.688h-13.92c-1.344 1.632-4.032 4.32-8.16 4.32s-8.448-3.744-9.888-8.256h25.248c1.536 0 3.648 0 4.704-0.67199 1.44-0.96001 2.304-2.4 2.784-3.84 0.288-1.248 0.48-2.496 0.48-3.84zm-11.232 0h-22.368c1.056-4.416 5.76-8.256 10.464-8.256 5.088 0 9.504 3.648 11.904 8.256z"/>
  </g>
 </g>
</svg>
